<svg width="49" height="43" viewBox="0 0 49 43" fill="none" xmlns="http://www.w3.org/2000/svg">
<path d="M1.25701 1.25686L6.27381 2.92914C8.13805 3.55053 9.51292 5.14207 9.85686 7.07678L12.8014 23.64C13.2563 26.1986 15.4809 28.0627 18.0798 28.0627H38.5064C40.8943 28.0627 42.9942 26.4836 43.6569 24.1895L47.529 10.7866C48.5192 7.35835 45.9466 3.93744 42.3782 3.93744H17.3405M20.0211 37.4447C20.0211 39.6653 18.2209 41.4656 16.0002 41.4656C13.7795 41.4656 11.9793 39.6653 11.9793 37.4447C11.9793 35.2241 13.7795 33.4239 16.0002 33.4239C18.2209 33.4239 20.0211 35.2241 20.0211 37.4447ZM41.4658 37.4447C41.4658 39.6653 39.6655 41.4656 37.4449 41.4656C35.2243 41.4656 33.424 39.6653 33.424 37.4447C33.424 35.2241 35.2243 33.4239 37.4449 33.4239C39.6655 33.4239 41.4658 35.2241 41.4658 37.4447Z" stroke="black" stroke-width="1.25" stroke-linecap="round"/>
</svg>
