<svg width="24" height="32" viewBox="0 0 24 32" fill="none" xmlns="http://www.w3.org/2000/svg">
<path d="M12 10C10.6 10 9.41667 9.51667 8.45 8.55C7.48333 7.58333 7 6.4 7 5C7 3.6 7.48333 2.41667 8.45 1.45C9.41667 0.483333 10.6 0 12 0C13.4 0 14.5833 0.483333 15.55 1.45C16.5167 2.41667 17 3.6 17 5C17 6.4 16.5167 7.58333 15.55 8.55C14.5833 9.51667 13.4 10 12 10ZM12 31.8L1.4 21.2C0.933333 20.7333 0.583333 20.1917 0.35 19.575C0.116667 18.9583 0 18.3 0 17.6C0 16.2 0.483333 15.0167 1.45 14.05C2.41667 13.0833 3.6 12.6 5 12.6C5.66667 12.6 6.29167 12.725 6.875 12.975C7.45833 13.225 8 13.6 8.5 14.1L12 17.6L15.5 14.1C15.9667 13.6333 16.5 13.2667 17.1 13C17.7 12.7333 18.3333 12.6 19 12.6C20.4 12.6 21.5833 13.0833 22.55 14.05C23.5167 15.0167 24 16.2 24 17.6C24 18.3 23.8833 18.9583 23.65 19.575C23.4167 20.1917 23.0667 20.7333 22.6 21.2L12 31.8Z" fill="black"/>
</svg>
