<svg width="203" height="192" viewBox="0 0 203 192" fill="none" xmlns="http://www.w3.org/2000/svg">
<path d="M8.16667 106.75V127.167C8.16667 129.5 9.13889 131.639 11.0833 133.583C13.0278 135.528 15.1667 136.5 17.5 136.5H185.5C187.833 136.5 189.972 135.528 191.917 133.583C193.861 131.639 194.833 129.5 194.833 127.167V106.75H8.16667ZM17.5 0H185.5C190.361 0 194.493 1.70139 197.896 5.10417C201.299 8.50694 203 12.6389 203 17.5V127.167C203 132.028 201.299 136.16 197.896 139.562C194.493 142.965 190.361 144.667 185.5 144.667H131.833V191.917L101.5 176.75L71.1667 191.917V144.667H17.5C12.6389 144.667 8.50694 142.965 5.10417 139.562C1.70139 136.16 0 132.028 0 127.167V17.5C0 12.6389 1.70139 8.50694 5.10417 5.10417C8.50694 1.70139 12.6389 0 17.5 0ZM8.16667 84.5833H194.833V17.5C194.833 15.1667 193.861 13.0278 191.917 11.0833C189.972 9.13889 187.833 8.16667 185.5 8.16667H17.5C15.1667 8.16667 13.0278 9.13889 11.0833 11.0833C9.13889 13.0278 8.16667 15.1667 8.16667 17.5V84.5833ZM8.16667 127.167V8.16667H17.5C15.1667 8.16667 13.0278 9.13889 11.0833 11.0833C9.13889 13.0278 8.16667 15.1667 8.16667 17.5V127.167C8.16667 129.5 9.13889 131.639 11.0833 133.583C13.0278 135.528 15.1667 136.5 17.5 136.5H8.16667V127.167Z" fill="#1C1B1F"/>
</svg>
