<svg width="227" height="186" viewBox="0 0 227 186" fill="none" xmlns="http://www.w3.org/2000/svg">
<path d="M113.179 60.2453L83.0566 30.1226L113.179 0L143.594 30.1226L113.179 60.2453ZM0 186V146.811C0 142.717 1.31604 139.159 3.94811 136.137C6.58019 133.115 9.84591 131.409 13.7453 131.019H46.2075C49.1321 131.019 51.9104 131.701 54.5425 133.066C57.1745 134.431 59.3679 136.478 61.1226 139.208C67.1667 147.786 74.7217 154.415 83.7877 159.094C92.8538 163.774 102.651 166.113 113.179 166.113C123.708 166.113 133.553 163.774 142.717 159.094C151.881 154.415 159.484 147.786 165.528 139.208C167.283 136.478 169.476 134.431 172.109 133.066C174.741 131.701 177.421 131.019 180.151 131.019H212.613C216.513 131.409 219.827 133.115 222.557 136.137C225.286 139.159 226.651 142.717 226.651 146.811V186H159.972V157.047C153.538 162.506 146.324 166.747 138.33 169.769C130.336 172.791 121.953 174.302 113.179 174.302C104.601 174.302 96.3632 172.84 88.467 169.915C80.5708 166.991 73.3082 162.799 66.6793 157.34V186H0ZM28.3679 107.623C20.9591 107.623 14.5252 104.893 9.06604 99.434C3.60692 93.9748 0.877359 87.5409 0.877359 80.1321C0.877359 72.5283 3.60692 66.0456 9.06604 60.684C14.5252 55.3223 20.9591 52.6415 28.3679 52.6415C35.9717 52.6415 42.4544 55.3223 47.816 60.684C53.1777 66.0456 55.8585 72.5283 55.8585 80.1321C55.8585 87.5409 53.1777 93.9748 47.816 99.434C42.4544 104.893 35.9717 107.623 28.3679 107.623ZM197.991 107.623C190.582 107.623 184.148 104.893 178.689 99.434C173.23 93.9748 170.5 87.5409 170.5 80.1321C170.5 72.5283 173.23 66.0456 178.689 60.684C184.148 55.3223 190.582 52.6415 197.991 52.6415C205.594 52.6415 212.077 55.3223 217.439 60.684C222.8 66.0456 225.481 72.5283 225.481 80.1321C225.481 87.5409 222.8 93.9748 217.439 99.434C212.077 104.893 205.594 107.623 197.991 107.623Z" fill="#1C1B1F"/>
</svg>
